<?xml version="1.0" encoding="UTF-8"?>
<svg id="Calque_4" xmlns="http://www.w3.org/2000/svg" viewBox="0 0 143.13 156.99">
  <defs>
    <style>
      .cls-1 {
        fill: none;
      }

      .cls-2 {
        fill: #e30613;
      }
    </style>
  </defs>
  <path class="cls-1" d="M32.4,30.16c.17-.1.36-.2.54-.3-.18.1-.37.19-.54.3Z"/>
  <path class="cls-1" d="M34.02,29.29c.23-.11.46-.2.69-.31-.23.1-.47.2-.69.31Z"/>
  <path class="cls-1" d="M35.74,28.54c.25-.1.52-.18.78-.28-.26.09-.52.18-.78.28Z"/>
  <path class="cls-1" d="M73.65,96.86c-.3-.08-.61-.14-.91-.19.31.05.61.11.91.19Z"/>
  <path class="cls-1" d="M24.68,58.76c-.19-.26-.37-.53-.54-.81.17.28.35.55.54.81Z"/>
  <path class="cls-1" d="M25.92,60.26c-.14-.15-.27-.29-.4-.45.13.15.26.3.4.45Z"/>
  <path class="cls-1" d="M74.64,97.14c-.28-.09-.56-.17-.84-.24.28.08.56.16.84.24Z"/>
  <path class="cls-1" d="M35.54,138.61c-.21-.14-.41-.3-.6-.48.2.17.39.33.6.48Z"/>
  <path class="cls-1" d="M70.7,96.62c-.27.04-.55.09-.83.18.28-.08.56-.14.83-.18Z"/>
  <path class="cls-1" d="M25.27,59.53c-.14-.17-.27-.34-.4-.52.13.17.26.35.4.52Z"/>
  <path class="cls-1" d="M72.5,96.63c-.26-.04-.53-.06-.8-.06.27,0,.53.03.8.06Z"/>
  <path class="cls-1" d="M47.08,26.77c.34.02.68.04,1.02.07-.34-.03-.68-.05-1.02-.07Z"/>
  <path class="cls-1" d="M45.71,26.72c-.15,0-.29.01-.44.02.32,0,.64,0,.97,0-.18,0-.35-.02-.52-.02Z"/>
  <path class="cls-1" d="M43.29,26.84c.3-.03.6-.04.9-.06-.3.02-.6.03-.9.06Z"/>
  <path class="cls-1" d="M80.24,97.83c-.16.05-.31.1-.48.14.17-.03.32-.09.48-.14Z"/>
  <path class="cls-1" d="M26.61,60.96c-.14-.13-.28-.27-.41-.41.14.14.27.27.41.41Z"/>
  <path class="cls-1" d="M81.1,97.49c-.15.08-.29.16-.44.22.15-.06.3-.15.44-.22Z"/>
  <path class="cls-1" d="M78.8,98.06c.17,0,.33-.03.49-.05-.18.02-.36.05-.56.04.02,0,.04,0,.07,0Z"/>
  <path class="cls-1" d="M39.41,27.43c.29-.07.58-.12.87-.18-.29.06-.58.11-.87.18Z"/>
  <path class="cls-1" d="M37.54,27.92c.27-.08.55-.15.83-.23-.28.07-.56.15-.83.23Z"/>
  <path class="cls-1" d="M34.78,137.98c-.16-.15-.31-.3-.46-.47.15.17.3.32.46.47Z"/>
  <path class="cls-1" d="M41.33,27.07c.3-.05.59-.08.89-.12-.3.04-.6.07-.89.12Z"/>
  <path class="cls-1" d="M38.76,139.64c.07,0,.14-.02.21-.02-.09,0-.19.02-.28.01.02,0,.05,0,.07,0Z"/>
  <path class="cls-1" d="M48.94,26.92c.34.04.67.09,1.01.14-.34-.05-.67-.1-1.01-.14Z"/>
  <path class="cls-1" d="M38.53,139.62c-.2,0-.4-.03-.59-.06.2.03.39.05.59.06Z"/>
  <path class="cls-1" d="M38.38,64.37c-.1.02-.22.04-.32.06.1-.02.21-.04.32-.06Z"/>
  <path class="cls-1" d="M36.96,139.33c-.2-.07-.4-.15-.6-.25.2.09.39.18.6.25Z"/>
  <path class="cls-1" d="M37.74,139.54c-.24-.04-.47-.1-.7-.17.23.07.46.13.7.17Z"/>
  <path class="cls-1" d="M30,63.41c-.27-.14-.54-.3-.81-.46.27.16.53.32.81.46Z"/>
  <path class="cls-1" d="M28.12,62.22c-.16-.12-.33-.24-.49-.37.16.13.32.25.49.37Z"/>
  <path class="cls-1" d="M41.01,139.2c-.12.05-.24.08-.36.12.12-.04.24-.08.36-.12Z"/>
  <path class="cls-1" d="M29.01,62.83c-.21-.13-.41-.26-.61-.4.2.14.41.27.61.4Z"/>
  <path class="cls-1" d="M42.02,138.75c-.11.06-.21.1-.32.15.11-.05.21-.1.32-.15Z"/>
  <path class="cls-1" d="M27.34,61.61c-.15-.12-.3-.25-.44-.38.15.13.29.26.44.38Z"/>
  <path class="cls-1" d="M31.64,64.15c-.17-.07-.35-.14-.52-.21.17.07.34.15.52.21Z"/>
  <path class="cls-1" d="M32.47,64.43c-.17-.05-.33-.1-.5-.16.17.06.33.11.5.16Z"/>
  <path class="cls-1" d="M36.18,138.99c-.2-.1-.39-.22-.59-.35.19.13.39.24.59.35Z"/>
  <path class="cls-1" d="M40.01,139.49c-.12.02-.23.05-.35.07.12-.02.23-.04.35-.07Z"/>
  <path class="cls-1" d="M30.82,63.81c-.2-.09-.4-.19-.59-.29.2.1.4.2.59.29Z"/>
  <path class="cls-1" d="M85.19,90.42c-.05.25-.1.51-.16.75.06-.25.11-.5.16-.75Z"/>
  <path class="cls-1" d="M32.58,134.73c-.11-.26-.22-.52-.32-.8.1.27.21.54.32.8Z"/>
  <path class="cls-1" d="M85.65,84.23c.02.36.02.74.02,1.12,0-.38,0-.75-.02-1.12Z"/>
  <path class="cls-1" d="M71.37,76.94c.05.05.11.09.16.13-.06-.04-.11-.08-.16-.13Z"/>
  <path class="cls-1" d="M85.39,89.28c-.04.25-.07.5-.12.75.04-.25.08-.5.12-.75Z"/>
  <path class="cls-1" d="M79.66,73.72s-.02,0-.02,0c.24,0,.47.01.7.05-.22-.04-.44-.05-.67-.05Z"/>
  <path class="cls-1" d="M71.74,77.18c.06.03.12.06.19.08-.07-.02-.13-.05-.19-.08Z"/>
  <path class="cls-1" d="M70.36,75.1c.03.09.05.18.08.26-.03-.09-.06-.17-.08-.26Z"/>
  <path class="cls-1" d="M70.78,76.16c.04.07.08.14.12.21-.04-.07-.08-.14-.12-.21Z"/>
  <path class="cls-1" d="M84.93,91.56c-.06.24-.12.49-.2.73.07-.24.13-.48.2-.73Z"/>
  <path class="cls-1" d="M70.55,75.66c.03.08.07.16.1.24-.03-.08-.07-.16-.1-.24Z"/>
  <path class="cls-1" d="M70.98,96.6c.18-.02.35-.03.53-.04-.17,0-.35.02-.53.04Z"/>
  <path class="cls-1" d="M85.67,85.64c0,.29,0,.57-.02.86.01-.29.01-.58.02-.86Z"/>
  <path class="cls-1" d="M33.57,136.55c-.13-.2-.26-.4-.38-.61.12.21.25.42.38.61Z"/>
  <path class="cls-1" d="M85.54,88.05c-.03.27-.05.54-.08.8.03-.27.06-.53.08-.8Z"/>
  <path class="cls-1" d="M32.17,133.67c-.11-.33-.22-.67-.32-1.03.1.36.2.7.32,1.03Z"/>
  <path class="cls-1" d="M85.63,86.8c-.01.29-.03.58-.05.88.02-.29.04-.58.05-.88Z"/>
  <path class="cls-1" d="M33.07,135.73c-.15-.27-.29-.55-.42-.85.13.3.28.58.42.85Z"/>
  <path class="cls-1" d="M72.38,77.35c-.07,0-.14-.02-.21-.03.07.01.14.03.21.03Z"/>
  <path class="cls-1" d="M71.19,76.77c-.05-.05-.1-.11-.14-.17.05.06.09.12.14.17Z"/>
  <path class="cls-1" d="M69.95,71.49c0-.09,0-.18,0-.26,0,.09,0,.17,0,.26Z"/>
  <path class="cls-1" d="M69.99,70.06c0,.05,0,.11-.01.17,0-.06,0-.12.01-.17Z"/>
  <path class="cls-1" d="M34.2,137.39c-.18-.21-.35-.43-.52-.66.17.23.34.46.52.66Z"/>
  <path class="cls-1" d="M82.58,96.34c-.12.13-.24.27-.37.39.13-.12.25-.26.37-.39Z"/>
  <path class="cls-1" d="M70.22,74.49c.02.1.04.19.06.28-.02-.09-.04-.19-.06-.28Z"/>
  <path class="cls-1" d="M83.2,95.57c-.11.16-.22.32-.34.47.12-.15.23-.31.34-.47Z"/>
  <path class="cls-1" d="M57.59,29.54c.52.28,1.03.58,1.52.91-.49-.33-.99-.63-1.52-.91Z"/>
  <path class="cls-1" d="M50.77,27.19c.34.06.67.14,1,.21-.33-.08-.66-.15-1-.21Z"/>
  <path class="cls-1" d="M81.88,96.98c-.13.1-.26.22-.41.31.14-.09.27-.2.41-.31Z"/>
  <path class="cls-1" d="M52.56,27.59c.34.09.66.19.99.29-.33-.1-.66-.2-.99-.29Z"/>
  <path class="cls-1" d="M54.31,28.11c.34.12.67.25,1,.38-.33-.13-.66-.27-1-.38Z"/>
  <path class="cls-1" d="M55.99,28.76c.36.16.71.34,1.06.51-.35-.18-.7-.36-1.06-.51Z"/>
  <path class="cls-1" d="M70.02,73.2c0,.1.02.2.03.3-.01-.1-.02-.2-.03-.3Z"/>
  <path class="cls-1" d="M84.21,93.71c-.09.21-.18.43-.28.63.1-.2.19-.41.28-.63Z"/>
  <path class="cls-1" d="M69.97,72.53c0,.1.01.19.02.29,0-.1-.02-.19-.02-.29Z"/>
  <path class="cls-1" d="M70.1,73.86c.01.1.03.19.05.29-.02-.1-.03-.19-.05-.29Z"/>
  <path class="cls-1" d="M84.61,92.66c-.08.23-.15.46-.24.69.09-.22.16-.45.24-.69Z"/>
  <path class="cls-1" d="M69.96,70.63c0,.07,0,.15,0,.23,0-.08,0-.15,0-.23Z"/>
  <path class="cls-1" d="M69.95,71.87c0,.09,0,.18,0,.28,0-.09,0-.18,0-.28Z"/>
  <path class="cls-1" d="M83.74,94.69c-.1.18-.2.37-.31.55.11-.17.21-.36.31-.55Z"/>
  <path class="cls-2" d="M34.32,137.51s-.08-.08-.12-.13c.04.04.08.08.12.13Z"/>
  <path class="cls-2" d="M32.64,134.89c-.02-.05-.04-.1-.07-.15.02.05.04.1.07.15Z"/>
  <path class="cls-2" d="M36.37,139.08c-.06-.03-.12-.06-.18-.09.06.03.12.06.18.09Z"/>
  <path class="cls-2" d="M34.94,138.13c-.05-.05-.11-.1-.16-.15.05.05.11.1.16.15Z"/>
  <path class="cls-2" d="M33.69,136.72c-.04-.06-.08-.12-.12-.18.04.06.08.12.12.18Z"/>
  <path class="cls-2" d="M33.19,135.93c-.04-.07-.08-.13-.12-.2.04.07.08.14.12.2Z"/>
  <path class="cls-2" d="M35.6,138.64s-.04-.02-.06-.04c.02.01.04.02.06.04Z"/>
  <path class="cls-2" d="M85.28,90.03c-.02.13-.06.26-.08.39.03-.13.06-.26.08-.39Z"/>
  <path class="cls-2" d="M83.94,94.33c-.06.12-.13.24-.2.36.06-.12.14-.23.2-.36Z"/>
  <path class="cls-2" d="M84.37,93.34c-.05.12-.11.24-.16.36.05-.12.11-.24.16-.36Z"/>
  <path class="cls-2" d="M83.44,95.23c-.08.12-.16.22-.24.34.08-.11.17-.22.24-.34Z"/>
  <path class="cls-2" d="M82.86,96.04c-.09.11-.19.2-.28.3.09-.1.19-.19.28-.3Z"/>
  <path class="cls-2" d="M84.74,92.29c-.04.13-.09.25-.13.37.04-.12.09-.24.13-.37Z"/>
  <path class="cls-2" d="M82.21,96.73c-.1.09-.22.17-.33.25.11-.09.22-.16.33-.25Z"/>
  <path class="cls-2" d="M37.05,139.36s-.06-.02-.09-.03c.03,0,.06.02.09.03Z"/>
  <path class="cls-2" d="M81.47,97.29c-.12.08-.25.13-.37.19.12-.07.26-.12.37-.19Z"/>
  <path class="cls-2" d="M85.65,86.5c0,.1-.01.2-.02.3,0-.1.01-.2.02-.3Z"/>
  <path class="cls-2" d="M85.04,91.18c-.03.13-.07.25-.1.38.03-.13.07-.25.1-.38Z"/>
  <path class="cls-2" d="M85.58,87.68c-.01.13-.03.25-.04.38.01-.13.03-.25.04-.38Z"/>
  <path class="cls-2" d="M85.46,88.86c-.02.14-.04.28-.06.42.02-.14.05-.28.06-.42Z"/>
  <path class="cls-2" d="M85.67,85.35c0,.1,0,.19,0,.29,0-.1,0-.19,0-.29Z"/>
  <path class="cls-2" d="M43.03,138.14c-.34.23-.68.43-1.01.61.34-.18.67-.38,1.01-.61Z"/>
  <path class="cls-2" d="M39.66,139.56c-.23.04-.46.05-.69.06.23,0,.46-.03.69-.06Z"/>
  <path class="cls-2" d="M41.7,138.9c-.23.11-.46.21-.69.3.23-.08.46-.19.69-.3Z"/>
  <path class="cls-2" d="M40.65,139.32c-.22.07-.43.12-.64.17.21-.04.43-.1.64-.17Z"/>
  <path class="cls-2" d="M37.93,139.57c-.06,0-.13-.02-.19-.03.06.01.13.02.19.03Z"/>
  <path class="cls-2" d="M38.69,139.63c-.05,0-.11,0-.16,0,.05,0,.11,0,.16,0Z"/>
  <path class="cls-2" d="M80.66,97.71c-.13.05-.28.08-.42.12.14-.04.29-.07.42-.12Z"/>
  <path class="cls-2" d="M79.76,97.97c-.15.03-.31.03-.47.04.16-.01.32-.02.47-.04Z"/>
  <path class="cls-2" d="M75.76,97.49c-.38-.11-.75-.23-1.12-.35.37.11.74.23,1.12.35Z"/>
  <path class="cls-2" d="M70.98,96.6c-.09,0-.18,0-.27.02.09-.01.18-.01.27-.02Z"/>
  <path class="cls-2" d="M73.79,96.9s-.09-.03-.14-.04c.05.01.09.03.14.04Z"/>
  <path class="cls-2" d="M72.74,96.67c-.08-.01-.16-.02-.24-.03.08.01.16.02.24.03Z"/>
  <path class="cls-2" d="M55.31,28.49c.23.09.46.17.68.27-.22-.1-.45-.18-.68-.27Z"/>
  <path class="cls-2" d="M70.04,69.56c-.02.16-.03.33-.04.5.01-.18.03-.35.04-.5Z"/>
  <path class="cls-2" d="M57.05,29.27c.18.09.37.17.54.27-.18-.1-.36-.18-.54-.27Z"/>
  <path class="cls-2" d="M53.56,27.88c.25.08.5.15.75.23-.25-.08-.5-.16-.75-.23Z"/>
  <path class="cls-2" d="M69.96,72.15c0,.13,0,.25.02.38,0-.13-.01-.26-.02-.38Z"/>
  <path class="cls-2" d="M69.98,70.23c0,.13-.02.26-.02.39,0-.14.01-.26.02-.39Z"/>
  <path class="cls-2" d="M51.77,27.4c.27.06.53.12.8.19-.26-.07-.53-.13-.8-.19Z"/>
  <path class="cls-2" d="M69.95,71.49c0,.13,0,.25,0,.38,0-.13,0-.25,0-.38Z"/>
  <path class="cls-2" d="M49.94,27.06c.28.04.55.08.82.13-.27-.05-.55-.09-.82-.13Z"/>
  <path class="cls-2" d="M36.52,28.27c.34-.12.68-.24,1.02-.35-.35.11-.68.23-1.02.35Z"/>
  <path class="cls-2" d="M38.37,27.69c.34-.09.69-.18,1.04-.26-.35.08-.69.17-1.04.26Z"/>
  <path class="cls-2" d="M42.22,26.95c.35-.04.71-.08,1.07-.11-.36.03-.71.07-1.07.11Z"/>
  <path class="cls-2" d="M44.19,26.78c.36-.02.72-.03,1.07-.04-.36,0-.72.02-1.07.04Z"/>
  <path class="cls-2" d="M69.99,72.82c0,.12.02.25.03.37-.01-.12-.02-.25-.03-.37Z"/>
  <path class="cls-2" d="M48.09,26.84c.28.02.56.05.84.08-.28-.03-.56-.06-.84-.08Z"/>
  <path class="cls-2" d="M46.23,26.74c.28,0,.56.01.85.03-.28-.01-.56-.02-.85-.03Z"/>
  <path class="cls-2" d="M40.28,27.25c.35-.07.7-.13,1.05-.19-.35.05-.7.12-1.05.19Z"/>
  <path class="cls-2" d="M70.06,73.49c.01.12.03.24.05.36-.02-.12-.03-.24-.05-.36Z"/>
  <path class="cls-2" d="M72.84,77.31c-.16.03-.31.04-.46.03.02,0,.04,0,.06,0,.13,0,.26-.01.4-.04Z"/>
  <path class="cls-2" d="M69.95,71.23c0-.13,0-.25,0-.38,0,.12,0,.25,0,.38Z"/>
  <path class="cls-2" d="M71.5,96.56c.07,0,.13,0,.2,0-.05,0-.09-.01-.14-.01-.02,0-.04,0-.06,0Z"/>
  <path class="cls-2" d="M78.83,73.8c.28-.05.55-.07.81-.07-.26,0-.53.02-.81.07Z"/>
  <path class="cls-2" d="M71.37,76.94c-.06-.05-.12-.11-.18-.17.06.06.12.12.18.17Z"/>
  <path class="cls-2" d="M70.28,74.78c.03.11.05.22.08.33-.03-.11-.06-.22-.08-.33Z"/>
  <path class="cls-2" d="M32.26,133.93c-.03-.09-.06-.18-.09-.27.03.09.06.18.09.27Z"/>
  <path class="cls-2" d="M70.15,74.15c.02.12.04.23.06.35-.02-.11-.04-.23-.06-.35Z"/>
  <path class="cls-2" d="M71.53,77.07c.07.05.14.08.21.12-.07-.03-.14-.07-.21-.12Z"/>
  <path class="cls-2" d="M71.93,77.27c.08.03.16.04.24.05-.08-.01-.16-.03-.24-.05Z"/>
  <path class="cls-2" d="M70.9,76.37c.05.08.1.15.15.22-.05-.07-.1-.14-.15-.22Z"/>
  <path class="cls-2" d="M70.65,75.9c.04.09.08.18.13.26-.04-.08-.09-.17-.13-.26Z"/>
  <path class="cls-2" d="M70.44,75.36c.03.1.07.2.11.3-.04-.1-.07-.2-.11-.3Z"/>
  <path class="cls-2" d="M44.5,93.58c.49-1.6,1.03-3.45,1.46-5.03-.43,1.59-.97,3.46-1.46,5.03h0Z"/>
  <path class="cls-2" d="M34.71,28.98c.34-.15.68-.3,1.02-.44-.35.14-.69.29-1.02.44Z"/>
  <path class="cls-2" d="M26.19,60.55c-.09-.09-.19-.19-.28-.29.09.1.18.19.28.29Z"/>
  <path class="cls-2" d="M26.9,61.23c-.1-.09-.2-.18-.29-.27.1.09.19.18.29.27Z"/>
  <path class="cls-2" d="M32.94,29.87c.35-.2.71-.4,1.08-.58-.37.18-.72.38-1.08.58Z"/>
  <path class="cls-2" d="M27.64,61.85c-.1-.08-.2-.16-.3-.24.1.08.2.17.3.24Z"/>
  <path class="cls-2" d="M30.9,31.16c.48-.35.98-.68,1.5-1-.52.31-1.02.64-1.5,1Z"/>
  <path class="cls-2" d="M24.87,59.01c-.06-.09-.13-.17-.19-.26.06.09.13.17.19.26Z"/>
  <path class="cls-2" d="M25.52,59.82c-.08-.1-.17-.19-.25-.29.08.1.16.19.25.29Z"/>
  <path class="cls-2" d="M31.98,64.27c-.11-.04-.22-.08-.33-.12.11.04.22.08.33.12Z"/>
  <path class="cls-2" d="M32.81,64.53c-.11-.03-.22-.06-.34-.1.11.03.22.07.34.1Z"/>
  <path class="cls-2" d="M31.12,63.94c-.1-.04-.21-.09-.31-.13.1.05.21.09.31.13Z"/>
  <path class="cls-2" d="M29.19,62.95c-.06-.04-.12-.08-.18-.12.06.04.12.08.18.12Z"/>
  <path class="cls-2" d="M28.4,62.43c-.09-.07-.19-.14-.28-.2.09.07.18.14.28.2Z"/>
  <path class="cls-2" d="M30.22,63.52c-.07-.04-.15-.07-.22-.11.07.04.15.07.22.11Z"/>
  <path class="cls-1" d="M44.5,93.58c.49-1.6,1.03-3.45,1.46-5.03-.43,1.59-.97,3.46-1.46,5.03h0Z"/>
  <path class="cls-1" d="M45.71,26.72c-.15,0-.29.01-.44.02.32,0,.64,0,.97,0-.18,0-.35-.02-.52-.02Z"/>
  <path class="cls-1" d="M79.66,73.72s-.02,0-.02,0c.24,0,.47.01.7.05-.22-.04-.44-.05-.67-.05Z"/>
  <path class="cls-1" d="M72.84,77.31c-.16.03-.31.04-.46.03.02,0,.04,0,.06,0,.13,0,.26-.01.4-.04Z"/>
  <path class="cls-1" d="M38.76,139.64c.07,0,.14-.02.21-.02-.09,0-.19.02-.28.01.02,0,.05,0,.07,0Z"/>
  <path class="cls-1" d="M78.8,98.06c.17,0,.33-.03.49-.05-.18.02-.36.05-.56.04.02,0,.04,0,.07,0Z"/>
  <path class="cls-1" d="M71.5,96.56c.07,0,.13,0,.2,0-.05,0-.09-.01-.14-.01-.02,0-.04,0-.06,0Z"/>
  <path d="M85.63,84.06c-.26-5.02-2.45-11.92-7.81-9.92-3.5,1.44-6.48,6.38-7.71-.48-.44-5.28,1.02-11.92.59-17.23-.27-9.54-2.86-18.77-10.5-25.12-7.41-5.81-18.44-5.85-26.63-1.82-8.62,4.13-13.38,15.69-10.92,24.66,1.29,5.48,6.71,10.79,12.6,10.35,4.4-.29,7.81-4.21,12.03-4.72,8.04-.25,3.98,10.75,2.41,15.11-1.34,3.62-2.19,7.39-3.08,11.1-1.48,5.82-3.37,11.72-5.31,17.53-2.95,8.07-7.99,17.92-9.32,21.94-1.27,3.84-.39,8.69,2.13,11.82,4.68,5.68,11.82-.42,14.65-5.09,4.18-7.39,9.11-19.63,12.38-26.44,1.41-3.66,4.06-7.42,7.81-8.63,3.12-1.36,6.2.53,9.28.86,6.69.16,7.52-8.61,7.4-13.73v-.19Z"/>
  <path d="M124.64,92.94c-1.42-7.47-10.09-11.21-16.09-6.18-3.36,2.92-4.18,7.41-6.07,11.32-1.75,3.19-3.85,6.18-6.27,8.92-1.39,1.42-3.43,2.98-4.9,4.3-.84.7-1.57,1.53-1.7,1.26,1.72-8.46,3.48-17.13,5.83-25.5,3.26-8.08,5.31-16.56,8.7-24.59,1.87-4.24,4.21-8.35,5.56-12.8,1.98-5.71,1.48-12.65-4.37-15.74-4.97-2.8-11.24-3.27-16.1.27-4.42,3.19-7.79,8.3-8.89,13.67-1.04,5.57-1.91,13.04-2.61,21.09-.12,1.07.26,1.88,1.37,1.82,3.75-.21,6.4,2.12,7.87,5.58,3.38,7.87,2.4,26.02-9.86,24.54-1.23-.25-1.64.74-1.65,1.83-.23,4.41-.4,7.87-.6,11.89,0,6.08-1.58,9.53,1.07,14.5,2.06,3.93,6.57,6.2,10.92,5.71,4.13-.27,5.58-3.4,9.1-7.32,2.01-2.4,6.18-5.8,9.82-7.65,3.68-2.25,8.33-2.89,11.95-5.23,5.95-5.02,8.71-13.96,6.96-21.49l-.04-.18Z"/>
</svg>