<?xml version="1.0" encoding="UTF-8"?>
<svg id="Calque_4" data-name="Calque 4" xmlns="http://www.w3.org/2000/svg" viewBox="0 0 35.65 35.65">
  <defs>
    <style>
      .cls-1 {
        fill: #fff;
        stroke: #1d1d1b;
        stroke-miterlimit: 10;
        stroke-width: .25px;
      }
    </style>
  </defs>
  <path class="cls-1" d="M31.86,11.93c-2.46,0-5.4,2.56-8.99,7.82-.26.38-.63.92-1.09,1.61-.35.52-.62.92-.82,1.22-.06-.06-.1-.17-.1-.38,0-.84.57-2.34,1.71-4.46.93-.19,1.67-.49,2.2-.9.17-.12.3-.38.15-.7-.1-.22-.24-.3-.35-.33l-.27-.03-.15.13c-.17.14-.42.26-.74.36l.6-1.01c1.5-2.52,3.31-5.01,5.38-7.41,2.05-2.38,3.64-3.89,4.73-4.51.16-.1.25-.26.25-.44,0-.43-.3-.71-.84-.54-1.71.61-3.73,2.2-5.99,4.7-2.23,2.47-4.22,5.18-5.93,8.04l-.89,1.48c-.62.02-1.97.05-4.45-.21-1-.1-1.79-.17-2.37-.22l4.4-6.75c.68-1.08,1.03-2.14,1.03-3.14,0-1.06-.5-1.9-1.48-2.49-.92-.55-2.03-.83-3.3-.83-3.2,0-6.11.91-8.67,2.72-2.58,1.81-4.16,3.97-4.7,6.41-.11.5-.17,1-.17,1.47,0,1.19.33,2.16.98,2.87.68.8,1.65,1.21,2.88,1.21.3,0,.61-.03.91-.08,1.06-.14,2.07-.8,3-1.99.92-1.17,1.39-2.35,1.39-3.5,0-.71-.2-1.33-.58-1.83-.1-.16-.28-.25-.47-.25-.34,0-.58.23-.58.56,0,.16.06.3.13.36.23.28.34.64.34,1.1,0,.87-.4,1.81-1.2,2.81-.79.98-1.7,1.46-2.8,1.46-1.32,0-1.91-.64-1.91-2.06,0-1.25.52-2.69,1.54-4.28,1.03-1.61,2.45-2.97,4.23-4.05,1.77-1.08,3.76-1.62,5.91-1.62h.28c1.86.02,2.09.9,2.09,1.67s-.35,1.82-1.02,3.08c-1.84,3.06-3.31,5.43-4.37,7.06h-.43c-1.48,0-2.54.18-3.24.54-.7.36-1.4,1.01-2.06,1.9-.14.14-.22.32-.22.52,0,.21.11.33.17.39.06.05.2.13.42.1.2-.04.38-.18.6-.48.33-.52.83-.85,1.53-1.02.26-.07.84-.15,2.1-.17-2.72,4.51-2.72,5.07-2.72,5.31,0,.37.23.77.86.77.48,0,.87-.31,1.17-.93.71-1.53,1.67-3.25,2.85-5.12,4.05.12,5.78.18,5.96.18.37,0,.77-.01,1.17-.03-.76,1.52-1.13,2.69-1.13,3.57,0,1.04.34,1.79,1,2.22.04.03.08.05.13.07-.73,1.04-1.45,2.02-2.13,2.94l-1.38-2.68c-.48-.86-.92-1.26-1.46-1.26h-.01c-.61.11-1.28.87-2.18,2.46-.84,1.48-1.27,2.76-1.27,3.8,0,1.12.37,1.9,1.12,2.33.33.17.72.25,1.16.25,1.27,0,2.6-.65,3.97-1.93.97,1.04,2.18,1.88,3.62,2.5,1.56.68,3.09,1.03,4.55,1.03s2.71-.36,3.6-1.08c.73-.61,1.1-1.29,1.1-2.02,0-.25-.07-.51-.2-.82-.22-.5-.52-.6-.74-.6-.24,0-.38.12-.44.19-.08.09-.15.26-.1.52.03.15.04.31.04.48,0,.61-.3,1.06-.96,1.4-.5.28-1.31.42-2.39.42s-2.43-.38-3.97-1.12c-1.39-.67-2.4-1.38-3-2.12,1.42-1.76,2.49-3.1,3.2-4.01.35.09.76.13,1.22.13,1.52,0,3.2-.46,4.98-1.38,1.79-.92,3.24-2.15,4.32-3.66,1.39-1.92,2.09-3.64,2.09-5.09,0-1.74-.97-2.66-2.81-2.66ZM25.89,19.32c1.18-1.72,2.23-3.11,3.11-4.12,1.51-1.72,2.45-2.08,2.97-2.08.15,0,.28.02.41.06.45.14.66.45.66.98,0,1.07-.78,2.7-2.32,4.84h0c-.87,1.22-2.08,2.25-3.59,3.06-1.53.82-2.91,1.23-4.08,1.21.85-1.12,1.79-2.42,2.85-3.96ZM14.57,24.82c.06.07.26.36.86,1.54.4.79.79,1.47,1.17,2.03-.38.45-.84.87-1.37,1.26-.57.42-1.05.63-1.42.63-.16,0-.57,0-.57-1.16,0-.97.18-1.99.53-3.01.4-1.17.66-1.39.68-1.42.03.03.06.07.11.12Z"/>
</svg>